<svg xmlns="http://www.w3.org/2000/svg" xmlns:xlink="http://www.w3.org/1999/xlink" width="98.465" height="36.337" viewBox="0 0 98.465 36.337">
  <defs>
    <clipPath id="clip-path">
      <rect id="Rectangle_1" data-name="Rectangle 1" width="98.465" height="36.337" fill="#68c4c6"/>
    </clipPath>
  </defs>
  <g id="Group_2" data-name="Group 2" transform="translate(0 0)">
    <g id="Group_1" data-name="Group 1" transform="translate(0 0)" clip-path="url(#clip-path)">
      <path id="Path_1" data-name="Path 1" d="M0,23.126V0H7.493a27.17,27.17,0,0,1,5.552.347,6.065,6.065,0,0,1,3.329,2.264,7.178,7.178,0,0,1,1.341,4.5,7.552,7.552,0,0,1-.773,3.581,6.347,6.347,0,0,1-1.964,2.279,6.774,6.774,0,0,1-2.422,1.1,26.7,26.7,0,0,1-4.843.331H4.67v8.724ZM4.67,3.912v6.562H7.225a12.071,12.071,0,0,0,3.691-.363,3.066,3.066,0,0,0,1.459-1.136,3.106,3.106,0,0,0,.529-1.8A2.987,2.987,0,0,0,12.162,5.1,3.23,3.23,0,0,0,10.285,4.07a22.47,22.47,0,0,0-3.36-.158Z" transform="translate(0 0)" fill="#68c4c6"/>
      <path id="Path_2" data-name="Path 2" d="M55.916,0h4.433V4.1H55.916Zm0,6.373h4.433V23.126H55.916Z" transform="translate(-34.399 0)" fill="#68c4c6"/>
      <path id="Path_3" data-name="Path 3" d="M79.242,0h4.433V4.1H79.242Zm0,6.373h4.433V23.126H79.242Z" transform="translate(-48.75 0)" fill="#68c4c6"/>
      <path id="Path_4" data-name="Path 4" d="M102.568,0H107V4.1h-4.433Zm0,6.373H107V23.126h-4.433Z" transform="translate(-63.1 0)" fill="#68c4c6"/>
      <path id="Path_5" data-name="Path 5" d="M138.938,20.911l-4.369.788a3.175,3.175,0,0,0-1-1.972,3.024,3.024,0,0,0-2.027-.663,3.312,3.312,0,0,0-2.642,1.144,5.86,5.86,0,0,0-.986,3.826,6.779,6.779,0,0,0,1,4.212,3.289,3.289,0,0,0,2.69,1.231,2.988,2.988,0,0,0,2.067-.718A4.313,4.313,0,0,0,134.8,26.29l4.354.741a7.73,7.73,0,0,1-2.6,4.528,8.056,8.056,0,0,1-5.158,1.53,7.666,7.666,0,0,1-5.86-2.32,8.988,8.988,0,0,1-2.185-6.42,9.01,9.01,0,0,1,2.193-6.46,7.788,7.788,0,0,1,5.931-2.311,8.092,8.092,0,0,1,4.867,1.317,7.3,7.3,0,0,1,2.6,4.015" transform="translate(-75.886 -9.584)" fill="#68c4c6"/>
      <path id="Path_6" data-name="Path 6" d="M172.178,23.126V0h4.432V12.273l5.19-5.9h5.458l-5.726,6.121,6.137,10.632h-4.78L178.677,15.6l-2.067,2.161v5.364Z" transform="translate(-105.924 0)" fill="#68c4c6"/>
      <path id="Path_7" data-name="Path 7" d="M215.221,27.93l4.448-.678a3.259,3.259,0,0,0,1.152,1.964,3.889,3.889,0,0,0,2.429.67,4.387,4.387,0,0,0,2.587-.631,1.409,1.409,0,0,0,.584-1.183,1.166,1.166,0,0,0-.316-.836,3.544,3.544,0,0,0-1.483-.584q-5.363-1.183-6.8-2.161a4.315,4.315,0,0,1-1.988-3.77,4.646,4.646,0,0,1,1.72-3.66q1.719-1.483,5.331-1.483A9.3,9.3,0,0,1,228,16.7a5.724,5.724,0,0,1,2.3,3.313l-4.18.773a2.59,2.59,0,0,0-1.017-1.5,3.721,3.721,0,0,0-2.138-.52,4.815,4.815,0,0,0-2.508.489,1.05,1.05,0,0,0-.505.9.982.982,0,0,0,.442.8,16.617,16.617,0,0,0,4.141,1.246,12.339,12.339,0,0,1,4.946,1.972,4.1,4.1,0,0,1,1.388,3.3,5.061,5.061,0,0,1-1.924,3.96,8.52,8.52,0,0,1-5.7,1.657,9.343,9.343,0,0,1-5.418-1.388,6.4,6.4,0,0,1-2.611-3.771" transform="translate(-132.404 -9.584)" fill="#68c4c6"/>
      <path id="Path_8" data-name="Path 8" d="M65.515,84.7a20.654,20.654,0,0,1-9.522-2.233c-1.05-.51-2.059-1.106-3.068-1.7a2.25,2.25,0,0,1-.646-.646.822.822,0,0,1,.045-1.024.97.97,0,0,1,1.041-.454,3.98,3.98,0,0,1,.814.314c1.553.777,3.084,1.6,4.653,2.338a14.024,14.024,0,0,0,6.721,1.288A16.889,16.889,0,0,0,72,80.992c.825-.385,1.6-.885,2.392-1.329.431-.241.857-.491,1.3-.706a.976.976,0,0,1,1.321.418.872.872,0,0,1-.182,1.271,13.563,13.563,0,0,1-1.7,1.2,21.668,21.668,0,0,1-4.078,1.871,18.558,18.558,0,0,1-5.542.984" transform="translate(-32.064 -48.366)" fill="#68c4c6"/>
    </g>
  </g>
</svg>
