<svg xmlns="http://www.w3.org/2000/svg" width="20" height="24" viewBox="0 0 20 24">
  <g id="archive_2_" data-name="archive (2)" transform="translate(-2)">
    <path id="Path_142391" data-name="Path 142391" d="M17,0H7A5.006,5.006,0,0,0,2,5V19a5.006,5.006,0,0,0,5,5H17a5.006,5.006,0,0,0,5-5V5A5.006,5.006,0,0,0,17,0ZM7,2H17a3,3,0,0,1,3,3v6H4V5A3,3,0,0,1,7,2ZM17,22H7a3,3,0,0,1-3-3V13H20v6A3,3,0,0,1,17,22Z" fill="#68c4c6"/>
    <path id="Path_142392" data-name="Path 142392" d="M11,7h2a1,1,0,0,0,0-2H11a1,1,0,0,0,0,2Z" fill="#68c4c6"/>
    <path id="Path_142393" data-name="Path 142393" d="M13,17H11a1,1,0,0,0,0,2h2a1,1,0,0,0,0-2Z" fill="#68c4c6"/>
  </g>
</svg>
