<svg xmlns="http://www.w3.org/2000/svg" width="264.455" height="148.132" viewBox="0 0 264.455 148.132">
  <g id="bad-connection" transform="translate(-41.096 -98.555)">
    <path id="Path_142421" data-name="Path 142421" d="M305.551,162.032v-8.472a6.092,6.092,0,0,0-6.092-6.092h-21.5a6.092,6.092,0,0,1-6.092-6.092V132.9a6.092,6.092,0,0,1,6.092-6.092h.679a6.092,6.092,0,0,0,6.092-6.092v-8.472a6.092,6.092,0,0,0-6.092-6.092H82.134a6.092,6.092,0,0,0-6.092,6.092v8.472a6.092,6.092,0,0,0,6.092,6.092h0a6.092,6.092,0,0,1,6.092,6.092v8.472a6.092,6.092,0,0,1-6.092,6.092H58.577a6.092,6.092,0,0,0-6.092,6.092v8.472a6.092,6.092,0,0,0,6.092,6.092h9.243a6.092,6.092,0,0,1,6.092,6.092v8.473a6.092,6.092,0,0,1-6.092,6.092H67.8a6.092,6.092,0,0,0-6.092,6.092v8.472a6.092,6.092,0,0,0,6.092,6.092h1.337a6.092,6.092,0,0,1,6.092,6.092V224a6.092,6.092,0,0,1-6.092,6.092H47.188a6.092,6.092,0,0,0-6.092,6.092v8.472a6.092,6.092,0,0,0,6.092,6.092H281.907A6.092,6.092,0,0,0,288,244.656v-8.472a6.092,6.092,0,0,0-6.092-6.092h-5.282A6.092,6.092,0,0,1,270.533,224v-8.473a6.092,6.092,0,0,1,6.092-6.092h12.454a6.092,6.092,0,0,0,6.092-6.092v-8.472a6.092,6.092,0,0,0-6.092-6.092H285.3a6.092,6.092,0,0,1-6.092-6.092v-8.473a6.092,6.092,0,0,1,6.092-6.092h14.158A6.092,6.092,0,0,0,305.551,162.032Z" transform="translate(0 -4.061)" fill="#dbe8ec"/>
    <line id="Line_25" data-name="Line 25" x2="15.045" transform="translate(234.445 163.28)" fill="none" stroke="#b9d4db" stroke-linecap="round" stroke-width="3"/>
    <line id="Line_26" data-name="Line 26" x2="15.045" transform="translate(234.445 167.616)" fill="none" stroke="#b9d4db" stroke-linecap="round" stroke-width="3"/>
    <line id="Line_27" data-name="Line 27" x2="15.045" transform="translate(234.445 171.953)" fill="none" stroke="#b9d4db" stroke-linecap="round" stroke-width="3"/>
    <rect id="Rectangle_15287" data-name="Rectangle 15287" width="132.291" height="102.613" rx="13" transform="translate(83.185 126.468)" fill="#4b9ea0"/>
    <rect id="Rectangle_15288" data-name="Rectangle 15288" width="112.836" height="83.331" rx="8.997" transform="translate(92.912 136.109)" fill="#68c4c6"/>
    <rect id="Rectangle_15289" data-name="Rectangle 15289" width="30.423" height="22.468" rx="6.16" transform="translate(106.286 147.762)" fill="#dbe8ec"/>
    <rect id="Rectangle_15290" data-name="Rectangle 15290" width="30.423" height="22.468" rx="6.16" transform="translate(163.712 186.325)" fill="#dbe8ec"/>
    <path id="Path_142422" data-name="Path 142422" d="M250.111,254.966v5.1a4.127,4.127,0,0,1-4.127,4.127H200.751a4.127,4.127,0,0,0-4.127,4.126h0a4.127,4.127,0,0,0,4.127,4.127H221a4.126,4.126,0,0,1,4.127,4.126V277a4.127,4.127,0,0,0,4.127,4.127H246.8" transform="translate(-83.092 -83.563)" fill="none" stroke="#dbe8ec" stroke-width="2"/>
    <path id="Path_142423" data-name="Path 142423" d="M415.5,271.286H426.44a4.127,4.127,0,0,1,4.127,4.126v.428a4.126,4.126,0,0,0,4.126,4.126h8.234" transform="translate(-200.029 -92.282)" fill="none" stroke="#68c4c6" stroke-width="2"/>
    <path id="Path_142424" data-name="Path 142424" d="M246.384,225.446h26.184a4.127,4.127,0,0,1,4.127,4.127v3.754" transform="translate(-109.676 -67.792)" fill="none" stroke="#dbe8ec" stroke-width="2"/>
    <line id="Line_28" data-name="Line 28" x2="6.493" transform="translate(163.712 165.535)" fill="none" stroke="#dbe8ec" stroke-width="2"/>
    <line id="Line_29" data-name="Line 29" x2="6.493" transform="translate(163.712 171.403)" fill="none" stroke="#dbe8ec" stroke-width="2"/>
    <line id="Line_30" data-name="Line 30" x2="4.645" transform="translate(249.171 189.604)" fill="none" stroke="#409cb5" stroke-width="4"/>
    <line id="Line_31" data-name="Line 31" x2="4.645" transform="translate(249.171 184.947)" fill="none" stroke="#409cb5" stroke-width="4"/>
    <rect id="Rectangle_15291" data-name="Rectangle 15291" width="27.721" height="35.881" rx="2" transform="translate(257.262 168.944)" fill="#f9ae2b"/>
    <circle id="Ellipse_10" data-name="Ellipse 10" cx="5.701" cy="5.701" r="5.701" transform="translate(264.975 180.457)" fill="#409cb5"/>
    <path id="Path_142425" data-name="Path 142425" d="M531.841,275.8a5.7,5.7,0,0,1-6.847,8.888,5.7,5.7,0,1,0,6.847-8.888Z" transform="translate(-258.524 -94.696)" fill="#3086a3"/>
    <path id="Path_142426" data-name="Path 142426" d="M269.024,342.431H222.9a.931.931,0,0,1-.64-1.609l1.215-1.148a20.43,20.43,0,0,0,6.4-14.849h32.174a20.43,20.43,0,0,0,6.4,14.849l1.215,1.148a.931.931,0,0,1-.64,1.609Zm74.831-64.664h1.95v10.507h-1.95a5.254,5.254,0,0,1-5.254-5.254h0A5.254,5.254,0,0,1,343.855,277.766Z" transform="translate(-96.634 -95.744)" fill="#4b9ea0"/>
    <circle id="Ellipse_11" data-name="Ellipse 11" cx="1.237" cy="1.237" r="1.237" transform="translate(271.802 184.921)" fill="#dbe8ec"/>
    <circle id="Ellipse_12" data-name="Ellipse 12" cx="1.237" cy="1.237" r="1.237" transform="translate(267.077 184.921)" fill="#dbe8ec"/>
    <line id="Line_32" data-name="Line 32" x2="15.045" transform="translate(49.16 222.591)" fill="none" stroke="#b9d4db" stroke-linecap="round" stroke-width="3"/>
    <line id="Line_33" data-name="Line 33" x2="15.045" transform="translate(49.16 226.927)" fill="none" stroke="#b9d4db" stroke-linecap="round" stroke-width="3"/>
    <line id="Line_34" data-name="Line 34" x2="15.045" transform="translate(49.16 231.264)" fill="none" stroke="#b9d4db" stroke-linecap="round" stroke-width="3"/>
    <line id="Line_35" data-name="Line 35" x2="15.045" transform="translate(165.801 108.32)" fill="none" stroke="#b9d4db" stroke-linecap="round" stroke-width="3"/>
    <line id="Line_36" data-name="Line 36" x2="15.045" transform="translate(165.801 112.656)" fill="none" stroke="#b9d4db" stroke-linecap="round" stroke-width="3"/>
    <line id="Line_37" data-name="Line 37" x2="15.045" transform="translate(165.801 116.993)" fill="none" stroke="#b9d4db" stroke-linecap="round" stroke-width="3"/>
    <circle id="Ellipse_13" data-name="Ellipse 13" cx="7.651" cy="7.651" r="7.651" transform="translate(64.207 110.489)" fill="#b9d4db"/>
    <circle id="Ellipse_14" data-name="Ellipse 14" cx="3.985" cy="3.985" r="3.985" transform="translate(68.183 98.555)" fill="#b9d4db"/>
    <circle id="Ellipse_15" data-name="Ellipse 15" cx="3.449" cy="3.449" r="3.449" transform="translate(95.265 101.42)" fill="#b9d4db"/>
    <circle id="Ellipse_16" data-name="Ellipse 16" cx="2.299" cy="2.299" r="2.299" transform="translate(83.866 99.218)" fill="#b9d4db"/>
    <circle id="Ellipse_17" data-name="Ellipse 17" cx="5.511" cy="5.511" r="5.511" transform="translate(83.325 108.555)" fill="#b9d4db"/>
    <circle id="Ellipse_18" data-name="Ellipse 18" cx="7.651" cy="7.651" r="7.651" transform="translate(255.082 132.154)" fill="#b9d4db"/>
    <circle id="Ellipse_19" data-name="Ellipse 19" cx="3.985" cy="3.985" r="3.985" transform="translate(242.553 139.591)" fill="#b9d4db"/>
    <circle id="Ellipse_20" data-name="Ellipse 20" cx="5.511" cy="5.511" r="5.511" transform="translate(241.028 121.932)" fill="#b9d4db"/>
    <circle id="Ellipse_21" data-name="Ellipse 21" cx="7.651" cy="7.651" r="7.651" transform="translate(257.324 227.052)" fill="#b9d4db"/>
    <circle id="Ellipse_22" data-name="Ellipse 22" cx="3.449" cy="3.449" r="3.449" transform="translate(246.348 238.906)" fill="#b9d4db"/>
    <circle id="Ellipse_23" data-name="Ellipse 23" cx="5.511" cy="5.511" r="5.511" transform="translate(240.058 223.681)" fill="#b9d4db"/>
    <circle id="Ellipse_24" data-name="Ellipse 24" cx="16.628" cy="16.628" r="16.628" transform="translate(198.847 112.278)" fill="#f9ae2b"/>
    <rect id="Rectangle_15292" data-name="Rectangle 15292" width="1.732" height="15.381" rx="0.866" transform="translate(214.609 118.777)" fill="#409cb5"/>
    <path id="Path_142427" data-name="Path 142427" d="M413.7,183.4a1.625,1.625,0,0,0,0-3.248A1.625,1.625,0,0,0,413.7,183.4Z" transform="translate(-198.23 -43.593)" fill="#409cb5"/>
  </g>
</svg>
