<svg xmlns="http://www.w3.org/2000/svg" width="22" height="22" viewBox="0 0 22 22">
  <path id="shopping-bag_12_" data-name="shopping-bag (12)" d="M18.792,5.683H16.5V5.5a5.5,5.5,0,1,0-11,0v.183H3.208A3.248,3.248,0,0,0,0,8.892v8.067A5.087,5.087,0,0,0,5.042,22H16.958A5.087,5.087,0,0,0,22,16.958V8.892A3.248,3.248,0,0,0,18.792,5.683ZM8.25,5.5a2.75,2.75,0,1,1,5.5,0v.183H8.25Zm11,11.458a2.27,2.27,0,0,1-2.292,2.292H5.042A2.27,2.27,0,0,1,2.75,16.958V8.892a.433.433,0,0,1,.458-.458H5.5V9.625a1.375,1.375,0,0,0,2.75,0V8.433h5.5V9.625a1.375,1.375,0,0,0,2.75,0V8.433h2.292a.433.433,0,0,1,.458.458Z" fill="#fff"/>
</svg>
