<svg id="apps_2_" data-name="apps (2)" xmlns="http://www.w3.org/2000/svg" width="24" height="24" viewBox="0 0 24 24">
  <path id="Path_142276" data-name="Path 142276" d="M5.5,11A5.5,5.5,0,1,1,11,5.5,5.5,5.5,0,0,1,5.5,11Zm0-8A2.5,2.5,0,1,0,8,5.5,2.5,2.5,0,0,0,5.5,3Z" fill="#fff"/>
  <path id="Path_142277" data-name="Path 142277" d="M282.834,11a5.5,5.5,0,1,1,5.5-5.5A5.5,5.5,0,0,1,282.834,11Zm0-8a2.5,2.5,0,1,0,2.5,2.5A2.5,2.5,0,0,0,282.834,3Z" transform="translate(-264.334)" fill="#fff"/>
  <path id="Path_142278" data-name="Path 142278" d="M5.5,288.334a5.5,5.5,0,1,1,5.5-5.5A5.5,5.5,0,0,1,5.5,288.334Zm0-8a2.5,2.5,0,1,0,2.5,2.5A2.5,2.5,0,0,0,5.5,280.334Z" transform="translate(0 -264.334)" fill="#fff"/>
  <path id="Path_142279" data-name="Path 142279" d="M282.834,288.334a5.5,5.5,0,1,1,5.5-5.5A5.5,5.5,0,0,1,282.834,288.334Zm0-8a2.5,2.5,0,1,0,2.5,2.5A2.5,2.5,0,0,0,282.834,280.334Z" transform="translate(-264.334 -264.334)" fill="#fff"/>
</svg>
