<svg xmlns="http://www.w3.org/2000/svg" width="27.522" height="22" viewBox="0 0 27.522 22">
  <g id="Layer_15" data-name="Layer 15" transform="translate(-1.997 -4.793)">
    <path id="Path_142363" data-name="Path 142363" d="M26.114,26.793a.983.983,0,0,0,.983-.983V22.754a3.744,3.744,0,0,0,0-7.233V5.8a.983.983,0,1,0-1.965,0v9.729a3.744,3.744,0,0,0,0,7.233V25.82a.983.983,0,0,0,.983.973Zm-1.8-7.655a1.8,1.8,0,1,1,1.8,1.8A1.8,1.8,0,0,1,24.316,19.138Z" transform="translate(-0.352 0)" fill="#68c4c6"/>
    <path id="Path_142364" data-name="Path 142364" d="M15.934,26.793a.983.983,0,0,0,.983-.983V12.19a3.764,3.764,0,1,0-1.965,0V25.81A.983.983,0,0,0,15.934,26.793Zm-1.8-18.21a1.8,1.8,0,1,1,1.8,1.789,1.8,1.8,0,0,1-1.8-1.789Z" transform="translate(-0.176)" fill="#68c4c6"/>
    <path id="Path_142365" data-name="Path 142365" d="M4.771,19.423v6.388a.983.983,0,0,0,1.965,0V19.423a3.744,3.744,0,0,0,0-7.233V5.8a.983.983,0,1,0-1.965,0V12.19a3.744,3.744,0,0,0,0,7.233Zm.983-5.415a1.8,1.8,0,1,1-1.789,1.8,1.8,1.8,0,0,1,1.789-1.8Z" transform="translate(0 0)" fill="#68c4c6"/>
  </g>
</svg>
