<svg xmlns="http://www.w3.org/2000/svg" xmlns:xlink="http://www.w3.org/1999/xlink" width="1024" height="1024" viewBox="0 0 1024 1024">
  <defs>
    <clipPath id="clip-path">
      <rect id="Rectangle_1" data-name="Rectangle 1" width="349.621" height="129.021" fill="#fff"/>
    </clipPath>
  </defs>
  <g id="icon" transform="translate(-5185 8118)">
    <rect id="Rectangle_15286" data-name="Rectangle 15286" width="1024" height="1024" transform="translate(5185 -8118)" fill="#68c4c6"/>
    <g id="Group_50610" data-name="Group 50610" transform="translate(0 59)">
      <g id="Group_50609" data-name="Group 50609" transform="translate(5522 -7629.617)">
        <g id="Group_1" data-name="Group 1" transform="translate(0 0)" clip-path="url(#clip-path)">
          <path id="Path_1" data-name="Path 1" d="M0,82.114V0H26.606Q41.729,0,46.321,1.232A21.536,21.536,0,0,1,58.139,9.27Q62.9,15.46,62.9,25.26a26.814,26.814,0,0,1-2.744,12.716,22.536,22.536,0,0,1-6.974,8.093,24.054,24.054,0,0,1-8.6,3.894,94.792,94.792,0,0,1-17.2,1.175H16.58V82.114ZM16.58,13.891v23.3h9.074q9.8,0,13.107-1.288a10.887,10.887,0,0,0,5.18-4.033,11.03,11.03,0,0,0,1.877-6.385,10.608,10.608,0,0,0-2.633-7.393,11.468,11.468,0,0,0-6.665-3.641,79.786,79.786,0,0,0-11.932-.56Z" transform="translate(0 0)" fill="#fff"/>
          <path id="Path_2" data-name="Path 2" d="M55.916,0h15.74V14.562H55.916Zm0,22.629h15.74V82.114H55.916Z" transform="translate(20.483 0)" fill="#fff"/>
          <path id="Path_3" data-name="Path 3" d="M79.242,0h15.74V14.562H79.242Zm0,22.629h15.74V82.114H79.242Z" transform="translate(29.028 0)" fill="#fff"/>
          <path id="Path_4" data-name="Path 4" d="M102.568,0h15.74V14.562h-15.74Zm0,22.629h15.74V82.114h-15.74Z" transform="translate(37.572 0)" fill="#fff"/>
          <path id="Path_5" data-name="Path 5" d="M178.692,34.511l-15.514,2.8a11.272,11.272,0,0,0-3.558-7,10.737,10.737,0,0,0-7.2-2.353,11.76,11.76,0,0,0-9.382,4.061q-3.5,4.062-3.5,13.584,0,10.586,3.555,14.954a11.677,11.677,0,0,0,9.551,4.369,10.609,10.609,0,0,0,7.338-2.55q2.857-2.548,4.031-8.765l15.461,2.632q-2.41,10.643-9.243,16.077t-18.314,5.434q-13.055,0-20.809-8.236t-7.758-22.8q0-14.732,7.787-22.938t21.059-8.2q10.866,0,17.28,4.677t9.214,14.255" transform="translate(45.186 5.706)" fill="#fff"/>
          <path id="Path_6" data-name="Path 6" d="M172.178,82.114V0h15.737V43.577l18.429-20.948h19.38L205.392,44.361l21.79,37.753H210.209L195.254,55.4l-7.338,7.673V82.114Z" transform="translate(63.072 0)" fill="#fff"/>
          <path id="Path_7" data-name="Path 7" d="M215.221,59.435l15.795-2.407A11.57,11.57,0,0,0,235.106,64q3.076,2.379,8.624,2.38,6.1,0,9.186-2.241a5,5,0,0,0,2.073-4.2,4.138,4.138,0,0,0-1.12-2.969q-1.176-1.119-5.266-2.073-19.044-4.2-24.139-7.673a15.321,15.321,0,0,1-7.06-13.386,16.5,16.5,0,0,1,6.107-13q6.1-5.265,18.93-5.264,12.211,0,18.149,3.976a20.323,20.323,0,0,1,8.176,11.763l-14.841,2.744a9.2,9.2,0,0,0-3.613-5.32q-2.662-1.849-7.59-1.847-6.218,0-8.906,1.735a3.727,3.727,0,0,0-1.794,3.193,3.487,3.487,0,0,0,1.569,2.857q2.127,1.568,14.7,4.424t17.561,7q4.927,4.2,4.927,11.708,0,8.177-6.832,14.059t-20.222,5.882q-12.155,0-19.239-4.93a22.706,22.706,0,0,1-9.27-13.389" transform="translate(78.839 5.706)" fill="#fff"/>
          <path id="Path_8" data-name="Path 8" d="M99.682,100.21c-11.943.232-23.152-2.75-33.811-7.929-3.727-1.812-7.313-3.928-10.9-6.02a7.988,7.988,0,0,1-2.294-2.293,2.92,2.92,0,0,1,.158-3.636,3.443,3.443,0,0,1,3.695-1.614,14.13,14.13,0,0,1,2.891,1.115c5.513,2.757,10.951,5.67,16.521,8.3a49.8,49.8,0,0,0,23.865,4.574,59.969,59.969,0,0,0,22.906-5.666c2.928-1.366,5.665-3.143,8.493-4.721,1.53-.854,3.043-1.745,4.617-2.507a3.467,3.467,0,0,1,4.689,1.482,3.1,3.1,0,0,1-.648,4.514,48.151,48.151,0,0,1-6.029,4.259,76.938,76.938,0,0,1-14.482,6.643,65.894,65.894,0,0,1-19.678,3.494" transform="translate(19.092 28.799)" fill="#fff"/>
        </g>
      </g>
      <path id="shopping-bag_15_" data-name="shopping-bag (15)" d="M553.054,191.669a16.218,16.218,0,0,0-16.218-14.11H447.474V145.123a133.963,133.963,0,0,0-267.925,0v32.436H90.024a16.218,16.218,0,0,0-16.218,14.11L13.636,648.05a16.218,16.218,0,0,0,4.217,13.137c6.812,7.3,14.272,14.759,22.381,22.057A16.218,16.218,0,0,0,51.1,687.46H575.922a16.218,16.218,0,0,0,10.866-4.217c7.947-7.3,16.218-14.759,22.381-22.057a16.218,16.218,0,0,0,4.217-13.137ZM212.471,144.8a101.526,101.526,0,1,1,203.052,0v32.436H211.985Zm356.8,510.225H57.425l-10.7-10.38L104.134,210H522.726l57.413,434.648Z" transform="translate(5383.498 -8014.16)" fill="#fff"/>
    </g>
  </g>
</svg>
