<svg xmlns="http://www.w3.org/2000/svg" width="42" height="28" viewBox="0 0 42 28">
  <g id="Group_50526" data-name="Group 50526" transform="translate(-158 -732.667)">
    <g id="mastercard-light-large" transform="translate(158 732.667)">
      <rect id="card_bg" width="42" height="28" rx="4" transform="translate(0 0)" fill="#0873b9"/>
    </g>
    <g id="knet" transform="translate(159.75 733.733)">
      <g id="_0873b9ff" data-name="#0873b9ff">
        <path id="Path_1" data-name="Path 1" d="M0,0H38.5V6.547q-19.25-.013-38.5,0V0M4.254.969c-.355.7-.712,1.393-1.034,2.105.408.484.808.976,1.211,1.465.351.016.7.014,1.055.013,3.792-.01,7.585.016,11.377-.013.013-.839.008-1.678,0-2.517a7.617,7.617,0,0,0-.983,0c-.022.31-.037.62-.062.93-.159.008-.319.014-.476.019,0-.324,0-.649-.026-.972-.363,0-.725,0-1.087,0a7.434,7.434,0,0,0-.016,1.014,6.729,6.729,0,0,1-.741.032c-2.887-.016-5.774.018-8.661-.018.272-.694.63-1.354.874-2.059C5.21.961,4.732.966,4.254.969M30.463.9c0,.388-.12.834.168,1.158.174.21.305.577.643.529.985,0,1.969,0,2.954,0,.082.191.16.382.23.576-1.125,0-2.251,0-3.376,0-.142-.014-.326.032-.417-.108-.333-.364-.61-.773-.955-1.127-.747,0-1.494,0-2.241,0,0,.871.014,1.741-.006,2.612-1.227.009-2.456.026-3.683-.008a7.377,7.377,0,0,1,.013-1.3c1.047-.01,2.094.011,3.141-.011,0-.432.006-.862,0-1.294-1.586.009-3.173,0-4.76,0-.009,1.211,0,2.422,0,3.633,2.226.029,4.454.021,6.681,0,.008-.644-.017-1.29.018-1.934.351.154.654.47,1.063.453,1.607,0,3.215,0,4.821,0,.164-.008.367.024.472-.133.259-.28.526-.556.758-.857A6.017,6.017,0,0,0,35.377,2c-1.143-.089-2.292-.01-3.437-.048.007-.167.015-.335.024-.5.964-.006,1.928-.042,2.89-.082-.068-.155-.139-.31-.207-.465C33.252.873,31.858.9,30.463.9m-24.17.131c-.008.151-.013.3-.013.455.346.008.691.008,1.037,0,.008-.159.012-.318.014-.477a5.171,5.171,0,0,0-1.038.02m1.72-.01c-.006.156-.009.311-.008.467.341.006.682.007,1.023,0,0-.158,0-.317,0-.475a5.52,5.52,0,0,0-1.02.006m7.793,0c0,.156-.009.313-.01.47.342.006.682.006,1.023,0,0-.154,0-.309,0-.464a5.255,5.255,0,0,0-1.017,0M18.493,2.5c.007.52,0,1.04.007,1.561.7.024,1.394.014,2.091.007-.009-.526.009-1.055-.049-1.579-.682,0-1.366-.021-2.048.012M29.706,5.134c-.021.162-.042.322-.063.485.346.015.692.012,1.039,0,0-.156,0-.311,0-.467-.327-.019-.654-.022-.98-.017m1.553.011c0,.159,0,.317,0,.476.339.006.678.008,1.017.008,0-.162,0-.323,0-.485A9.81,9.81,0,0,0,31.258,5.146Z" fill="#0873b9"/>
        <path id="Path_2" data-name="Path 2" d="M0,72.6q19.25-.006,38.5,0V84.513q-19.25.006-38.5,0V72.6m7.071.935c-.017,3.292.011,6.584,0,9.876a5.376,5.376,0,0,0,.727.062c2.021,0,4.042,0,6.063,0,.28,0,.557-.04.835-.063.007-1.178,0-2.356.006-3.533a14.63,14.63,0,0,0,.061-1.779c.478.4.876.872,1.317,1.3,1.075,1.081,2.126,2.185,3.206,3.26a4.348,4.348,0,0,0,.677.646,3.834,3.834,0,0,0,.442.015c3.5-.015,7,.016,10.5-.015a2.017,2.017,0,0,0-.345-.381c-1.028-.843-2.027-1.72-3.045-2.573-.863-.688-1.687-1.422-2.532-2.129-.078-.1-.27-.2-.18-.344.381-.292.8-.545,1.165-.855.907-.75,1.9-1.39,2.813-2.132a18.26,18.26,0,0,0,1.64-1.262c-3.243-.038-6.487,0-9.731-.017a2.064,2.064,0,0,0-.505.037c-1.444,1.06-2.827,2.2-4.263,3.268a7.587,7.587,0,0,1-1.109.8c-.058-1.4,0-2.794-.03-4.19C12.212,73.537,9.641,73.528,7.071,73.532Z" transform="translate(0 -65.769)" fill="#0873b9"/>
        <path id="Path_3" data-name="Path 3" d="M0,202.36q19.25.013,38.5,0V209H0V202.36m32.471.849c-.008.292-.008.585-.022.877-.336,0-.672,0-1.007.009q-.009.358-.006.717c.332.015.665.012,1,0,.072.67,0,1.346.04,2.018a.784.784,0,0,0,.3.617,1.944,1.944,0,0,0,1.2.257c.6-.013,1.194.022,1.791-.023q0-.381,0-.761a12.842,12.842,0,0,0-1.291-.024c-.01-.716-.008-1.433,0-2.149.448-.013.9-.012,1.346-.008.013-.215.02-.431.014-.646-.436-.008-.872-.01-1.308,0a8.425,8.425,0,0,1-.016-.882c-.68-.006-1.36,0-2.04,0M5.193,204.595c-.013-.124-.026-.247-.038-.37-.633-.01-1.266,0-1.9,0,0,1.141-.029,2.285.013,3.425.662,0,1.323,0,1.986,0,.009-.677-.019-1.355.011-2.032.059-.4.491-.6.849-.7a2.527,2.527,0,0,1,1.708.113.78.78,0,0,1,.426.688c.021.633-.008,1.267.01,1.9.669.007,1.339.03,2.007-.013-.012-.718.012-1.437-.013-2.154-.026-.584-.578-.964-1.08-1.172a4.8,4.8,0,0,0-3.98.319m12.28.32a1.342,1.342,0,0,0-.218,1.707A2.612,2.612,0,0,0,19,207.639a8.942,8.942,0,0,0,3.08.072,3.469,3.469,0,0,0,2.209-1.067c-.621-.035-1.243-.013-1.863-.022-.491-.04-.863.369-1.347.371a2.809,2.809,0,0,1-1.476-.216.913.913,0,0,1-.426-.622c1.738-.071,3.482.007,5.223-.039a1.844,1.844,0,0,0-1.149-1.673,6.678,6.678,0,0,0-3.232-.426A4.429,4.429,0,0,0,17.472,204.914Z" transform="translate(0 -183.335)" fill="#0873b9"/>
        <path id="Path_4" data-name="Path 4" d="M199.67,228.86a1.874,1.874,0,0,1,1.767-.7,1.346,1.346,0,0,1,1.267.744C201.693,228.916,200.678,228.936,199.67,228.86Z" transform="translate(-180.452 -206.703)" fill="#0873b9"/>
      </g>
      <g id="_fdfefdff" data-name="#fdfefdff" transform="translate(0 0.889)">
        <path id="Path_5" data-name="Path 5" d="M34.494,10.273c.477,0,.956-.008,1.433.006-.244.705-.6,1.365-.874,2.059,2.887.036,5.774,0,8.661.018a6.728,6.728,0,0,0,.741-.032,7.435,7.435,0,0,1,.016-1.014c.362,0,.724,0,1.087,0,.026.323.03.648.026.972.158,0,.318-.01.476-.019.025-.31.039-.62.062-.93a7.616,7.616,0,0,1,.983,0c.006.839.012,1.678,0,2.517-3.792.029-7.584,0-11.377.013-.352,0-.7,0-1.055-.013-.4-.489-.8-.981-1.211-1.465C33.781,11.666,34.139,10.969,34.494,10.273Z" transform="translate(-30.239 -10.192)" fill="#fdfefd"/>
        <path id="Path_6" data-name="Path 6" d="M238.594,9.457c1.395,0,2.789-.022,4.184.012.068.155.139.31.207.465-.963.039-1.926.076-2.89.082-.009.166-.017.334-.024.5,1.145.038,2.294-.041,3.437.048a6.021,6.021,0,0,1,.6,1.084c-.232.3-.5.577-.758.857-.1.156-.308.125-.472.133-1.606,0-3.214,0-4.821,0-.409.017-.711-.3-1.063-.453-.036.644-.011,1.29-.018,1.934-2.226.017-4.454.025-6.681,0,0-1.211-.006-2.422,0-3.633,1.586,0,3.173.006,4.76,0,.009.432.007.862,0,1.294-1.046.023-2.093,0-3.141.011a7.386,7.386,0,0,0-.012,1.3c1.227.034,2.456.017,3.683.008.02-.871,0-1.741.006-2.612.747,0,1.494,0,2.241,0,.345.354.622.763.955,1.127.09.14.274.094.417.108,1.125-.006,2.251,0,3.376,0-.07-.195-.148-.385-.23-.576-.985,0-1.969,0-2.954,0-.338.048-.469-.32-.643-.529C238.474,10.291,238.6,9.846,238.594,9.457Z" transform="translate(-208.131 -9.451)" fill="#fdfefd"/>
        <path id="Path_7" data-name="Path 7" d="M65.253,10.56a5.171,5.171,0,0,1,1.038-.02c0,.159-.007.318-.014.477-.346.007-.691.007-1.037,0C65.241,10.863,65.246,10.712,65.253,10.56Z" transform="translate(-58.961 -10.423)" fill="#fdfefd"/>
        <path id="Path_8" data-name="Path 8" d="M83.176,10.545a5.52,5.52,0,0,1,1.02-.006c0,.158,0,.317,0,.475-.341,0-.682,0-1.023,0C83.167,10.856,83.17,10.7,83.176,10.545Z" transform="translate(-75.163 -10.418)" fill="#fdfefd"/>
        <path id="Path_9" data-name="Path 9" d="M164.13,10.551a5.255,5.255,0,0,1,1.017,0c0,.155,0,.31,0,.464-.341.009-.681.009-1.023,0C164.121,10.864,164.125,10.707,164.13,10.551Z" transform="translate(-148.323 -10.426)" fill="#fdfefd"/>
        <path id="Path_10" data-name="Path 10" d="M192.13,26.433c.682-.033,1.366-.011,2.048-.012.058.525.04,1.053.049,1.579-.7.008-1.395.018-2.091-.007C192.134,27.473,192.137,26.953,192.13,26.433Z" transform="translate(-173.638 -24.82)" fill="#fdfefd"/>
        <path id="Path_11" data-name="Path 11" d="M308.043,54.591c.326,0,.653,0,.98.017,0,.156,0,.311,0,.467-.346.013-.693.016-1.038,0C308,54.913,308.021,54.752,308.043,54.591Z" transform="translate(-278.337 -50.345)" fill="#fdfefd"/>
        <path id="Path_12" data-name="Path 12" d="M324.757,54.592a9.811,9.811,0,0,1,1.025,0c0,.162,0,.323,0,.485-.34,0-.679,0-1.017-.008C324.757,54.909,324.756,54.751,324.757,54.592Z" transform="translate(-293.498 -50.335)" fill="#fdfefd"/>
        <path id="Path_13" data-name="Path 13" d="M0,69.6q19.25.006,38.5,0v.282q-19.25-.01-38.5,0Z" transform="translate(0 -63.943)" fill="#fdfefd"/>
        <path id="Path_14" data-name="Path 14" d="M0,199.36q19.25.01,38.5,0v.285q-19.25-.006-38.5,0Z" transform="translate(0 -181.505)" fill="#fdfefd"/>
        <path id="Path_15" data-name="Path 15" d="M327.638,211.375c.68,0,1.359,0,2.04,0a8.4,8.4,0,0,0,.016.882c.436-.008.872,0,1.308,0,.006.215,0,.431-.014.646-.45,0-.9,0-1.346.008,0,.716-.006,1.433,0,2.149a12.856,12.856,0,0,1,1.291.024q-.006.379,0,.761c-.6.045-1.194.01-1.791.023a1.944,1.944,0,0,1-1.2-.257.784.784,0,0,1-.3-.617c-.037-.671.032-1.347-.04-2.018-.333.008-.666.011-1,0q0-.36.006-.717c.335-.008.671-.006,1.007-.009C327.63,211.96,327.63,211.668,327.638,211.375Z" transform="translate(-295.167 -192.39)" fill="#fdfefd"/>
        <path id="Path_16" data-name="Path 16" d="M35.656,220.247a4.8,4.8,0,0,1,3.98-.319c.5.208,1.054.588,1.08,1.171.024.717,0,1.436.013,2.154-.668.043-1.338.02-2.007.013-.017-.634.012-1.268-.01-1.9a.78.78,0,0,0-.426-.688,2.527,2.527,0,0,0-1.708-.113c-.358.1-.79.3-.849.7-.03.677,0,1.355-.011,2.032-.662.007-1.323,0-1.986,0-.042-1.14-.017-2.284-.013-3.425.633,0,1.266-.009,1.9,0C35.63,220,35.642,220.123,35.656,220.247Z" transform="translate(-30.463 -199.875)" fill="#fdfefd"/>
        <path id="Path_17" data-name="Path 17" d="M177.491,220.612a4.429,4.429,0,0,1,2.543-.9,6.678,6.678,0,0,1,3.232.426,1.844,1.844,0,0,1,1.149,1.673c-1.74.045-3.484-.033-5.223.039a.913.913,0,0,0,.426.622,2.808,2.808,0,0,0,1.476.216c.484,0,.857-.411,1.347-.371.621.008,1.243-.013,1.863.022a3.469,3.469,0,0,1-2.209,1.067,8.942,8.942,0,0,1-3.08-.072,2.612,2.612,0,0,1-1.744-1.017,1.342,1.342,0,0,1,.218-1.707m1.746.577c1.008.076,2.023.056,3.034.047a1.346,1.346,0,0,0-1.267-.744A1.874,1.874,0,0,0,179.237,221.189Z" transform="translate(-160.018 -199.921)" fill="#fdfefd"/>
      </g>
      <g id="_fae80cff" data-name="#fae80cff" transform="translate(7.066 7.759)">
        <path id="Path_18" data-name="Path 18" d="M73.415,82.534c2.57,0,5.141.006,7.712,0,.032,1.4-.028,2.8.03,4.19a7.588,7.588,0,0,0,1.109-.8c1.436-1.071,2.819-2.208,4.263-3.268a2.063,2.063,0,0,1,.505-.037c3.244.014,6.488-.021,9.731.017a18.26,18.26,0,0,1-1.64,1.262c-.912.743-1.907,1.382-2.813,2.132-.37.309-.783.562-1.165.855-.09.144.1.244.18.344.845.708,1.669,1.441,2.532,2.129,1.018.854,2.017,1.73,3.045,2.573a2.018,2.018,0,0,1,.345.381c-3.5.031-7,0-10.5.015a3.839,3.839,0,0,1-.442-.015,4.348,4.348,0,0,1-.677-.646c-1.08-1.076-2.131-2.179-3.206-3.261-.441-.432-.838-.909-1.317-1.3a14.629,14.629,0,0,1-.061,1.779c-.011,1.177,0,2.355-.006,3.533-.278.023-.555.062-.835.063-2.02,0-4.042,0-6.063,0a5.374,5.374,0,0,1-.727-.062C73.426,89.118,73.4,85.825,73.415,82.534Z" transform="translate(-73.409 -82.53)" fill="#fae80c"/>
      </g>
    </g>
  </g>
</svg>
