<svg id="left-arrow" xmlns="http://www.w3.org/2000/svg" width="12.761" height="10.599" viewBox="0 0 12.761 10.599">
  <g id="Group_11445" data-name="Group 11445" transform="translate(0 0)">
    <path id="Path_142281" data-name="Path 142281" d="M.717,45.973l-.02,0H9.236l-2.684-2.69a.7.7,0,0,1,0-.991l.418-.418a.7.7,0,0,1,.986,0l4.6,4.6a.7.7,0,0,1,0,.99l-4.6,4.6a.7.7,0,0,1-.986,0l-.418-.418a.691.691,0,0,1-.2-.493.67.67,0,0,1,.2-.484L9.267,47.97H.708A.723.723,0,0,1,0,47.254v-.591A.709.709,0,0,1,.717,45.973Z" transform="translate(0 -41.674)" fill="#1d1d1b"/>
  </g>
</svg>
