<svg xmlns="http://www.w3.org/2000/svg" width="24" height="16" viewBox="0 0 24 16">
  <path id="money_15_" data-name="money (15)" d="M19,20H5a5.006,5.006,0,0,1-5-5V9A5.006,5.006,0,0,1,5,4H19a5.006,5.006,0,0,1,5,5v6a5.006,5.006,0,0,1-5,5ZM5,6A3,3,0,0,0,2,9v6a3,3,0,0,0,3,3H19a3,3,0,0,0,3-3V9a3,3,0,0,0-3-3Zm7,10a4,4,0,1,1,4-4A4,4,0,0,1,12,16Zm0-6a2,2,0,1,0,2,2A2,2,0,0,0,12,10ZM5,8A1,1,0,1,0,6,9,1,1,0,0,0,5,8ZM18,9a1,1,0,1,0,1-1A1,1,0,0,0,18,9ZM5,14a1,1,0,1,0,1,1A1,1,0,0,0,5,14Zm13,1a1,1,0,1,0,1-1A1,1,0,0,0,18,15Z" transform="translate(0 -4)" fill="#68c4c6"/>
</svg>
