<svg xmlns="http://www.w3.org/2000/svg" width="33" height="34" viewBox="0 0 33 34">
  <g id="Group_11342" data-name="Group 11342" transform="translate(-0.231 0.335)">
    <ellipse id="Ellipse_2" data-name="Ellipse 2" cx="16.5" cy="17" rx="16.5" ry="17" transform="translate(0.231 -0.335)" fill="#fafafa"/>
    <path id="tiktok-share-icon-black-1" d="M29.583,18.813q-.238.023-.477.024A5.176,5.176,0,0,1,24.775,16.5v7.971a5.891,5.891,0,1,1-5.891-5.891c.123,0,.243.011.364.019v2.9a3,3,0,1,0-.364,5.977,3.08,3.08,0,0,0,3.128-2.969l.029-13.537h2.777a5.173,5.173,0,0,0,4.768,4.619v3.226" transform="translate(-4.372 -3.944)" fill="#68c4c6"/>
  </g>
</svg>
