<svg xmlns="http://www.w3.org/2000/svg" width="34" height="34" viewBox="0 0 34 34">
  <g id="Group_11343" data-name="Group 11343" transform="translate(0.356 0.335)">
    <circle id="Ellipse_1" data-name="Ellipse 1" cx="17" cy="17" r="17" transform="translate(-0.356 -0.335)" fill="#fafafa"/>
    <path id="snapchat-ghost" d="M11.1,4a5.055,5.055,0,0,0-1.934.419A4.449,4.449,0,0,0,6.848,6.711,6.736,6.736,0,0,0,6.609,9.9a1.078,1.078,0,0,1-.339-.08,1.048,1.048,0,0,0-.439-.1,1.314,1.314,0,0,0-.7.2.957.957,0,0,0-.319,1.5,2.037,2.037,0,0,0,.877.558c.092.035.162.075.239.1a3.038,3.038,0,0,1,.459.16c.115.06.132.107.12.08a.54.54,0,0,1-.06.16l-.02.02a4.184,4.184,0,0,1-2.752,2.293A.812.812,0,0,0,3,15.624a.91.91,0,0,0,.08.3,1.4,1.4,0,0,0,.8.7,7.063,7.063,0,0,0,1.316.319.737.737,0,0,1,.02.08c.025.112.055.254.1.4a.9.9,0,0,0,.4.5.846.846,0,0,0,.439.1,1.939,1.939,0,0,0,.439-.06,3.684,3.684,0,0,1,.738-.08,3.365,3.365,0,0,1,.538.04,2.646,2.646,0,0,1,.917.5,4.074,4.074,0,0,0,2.413.9h.04c.032,0,.075,0,.1,0h.06a4.08,4.08,0,0,0,2.413-.9,2.742,2.742,0,0,1,.937-.5,3.126,3.126,0,0,1,.518-.04,3.713,3.713,0,0,1,.738.08,2.287,2.287,0,0,0,.439.06h.02a.92.92,0,0,0,.518-.16.866.866,0,0,0,.3-.459c.042-.142.072-.262.1-.379a.611.611,0,0,1,.02-.08,7.063,7.063,0,0,0,1.316-.319,1.4,1.4,0,0,0,.8-.7.944.944,0,0,0,.08-.3.81.81,0,0,0-.658-.838h-.02a3.459,3.459,0,0,1-2.054-1.216,4.825,4.825,0,0,1-.7-1.057c0-.007-.02-.04-.02-.04a.54.54,0,0,1-.06-.16c-.012.027,0-.02.12-.08a3.038,3.038,0,0,1,.459-.16c.082-.025.167-.065.259-.1a2.094,2.094,0,0,0,.778-.459,1.1,1.1,0,0,0,.319-.738,1.05,1.05,0,0,0-.778-.957s0-.02,0-.02-.012,0-.02,0a1.263,1.263,0,0,0-.479-.08,1.118,1.118,0,0,0-.5.1,1.113,1.113,0,0,1-.259.06,6.654,6.654,0,0,0-.239-3.171A4.5,4.5,0,0,0,13.428,4.4,4.991,4.991,0,0,0,11.454,4h-.319S11.153,3.994,11.1,4Zm.04,1.276h.319a3.827,3.827,0,0,1,1.456.3,3.156,3.156,0,0,1,1.675,1.675,8.211,8.211,0,0,1,.14,2.712L14.7,10c-.01.142-.012.284-.02.419a.634.634,0,0,0,.179.479,1.817,1.817,0,0,0,.678.279,1.228,1.228,0,0,0-.578,1.735.561.561,0,0,0,.02.06s0,.015,0,.02v.02c0,.007.015.012.02.02a5.567,5.567,0,0,0,.9,1.376,5.281,5.281,0,0,0,1.655,1.2,4.64,4.64,0,0,1-.658.16.9.9,0,0,0-.618.5,2.065,2.065,0,0,0-.12.439,4.3,4.3,0,0,0-1.635-.04,3.426,3.426,0,0,0-1.436.7,2.745,2.745,0,0,1-1.695.678c-.025,0-.05,0-.08,0a.426.426,0,0,0-.08,0h-.04A2.733,2.733,0,0,1,9.5,17.359a3.426,3.426,0,0,0-1.436-.7,4.731,4.731,0,0,0-1.615.02,2.086,2.086,0,0,0-.12-.4.9.9,0,0,0-.638-.518,4.193,4.193,0,0,1-.638-.16,5.748,5.748,0,0,0,2.532-2.552v-.02s.017-.015.02-.02a.271.271,0,0,0,.04-.1l-.04-.02a1.342,1.342,0,0,0,.08-1.077,1.4,1.4,0,0,0-.658-.658,1.672,1.672,0,0,0,.7-.259A.634.634,0,0,0,7.9,10.42c-.007-.15-.01-.3-.02-.459A8.387,8.387,0,0,1,8,7.249,3.164,3.164,0,0,1,9.679,5.574,3.827,3.827,0,0,1,11.135,5.275Z" transform="translate(5.195 5.064)" fill="#68c4c6"/>
  </g>
</svg>
