<svg xmlns="http://www.w3.org/2000/svg" width="66.251" height="75.379" viewBox="0 0 66.251 75.379">
  <g id="shopping-bag_13_" data-name="shopping-bag (13)" transform="translate(-31)">
    <path id="Path_142319" data-name="Path 142319" d="M88.377,19.751l0-.008c-.011-.059-.027-.116-.043-.173,0-.014-.007-.029-.011-.043-.016-.054-.036-.106-.056-.158-.006-.017-.012-.034-.019-.051-.017-.041-.037-.08-.057-.12s-.024-.053-.038-.078-.027-.044-.04-.066a2.179,2.179,0,0,0-1.176-.967c-.022-.008-.043-.017-.066-.024s-.058-.015-.088-.023-.083-.023-.125-.032L86.6,18c-.055-.01-.109-.019-.165-.025l-.044,0c-.059-.005-.118-.009-.178-.009H79.584v-2.5a15.459,15.459,0,0,0-30.917,0v2.5H42.034c-.061,0-.122,0-.182.009l-.04,0c-.057.006-.114.016-.17.026l-.049.008c-.044.009-.087.022-.131.034-.027.007-.055.013-.082.022s-.048.018-.072.026a2.177,2.177,0,0,0-1.176.974c-.011.019-.024.037-.034.056s-.027.057-.041.085-.037.074-.054.113c-.007.018-.013.037-.02.055-.02.051-.039.1-.055.154,0,.015-.007.03-.011.045-.016.056-.031.113-.042.171l0,.008L31.16,64.863a8.84,8.84,0,0,0,8.673,10.516H88.417A8.839,8.839,0,0,0,97.09,64.863ZM53.084,15.459a11.042,11.042,0,0,1,22.084,0v2.5H53.084Zm35.334,55.5H39.833a4.422,4.422,0,0,1-4.417-4.417,4.477,4.477,0,0,1,.08-.845l8.367-43.322h4.8v2.208a2.208,2.208,0,0,0,4.417,0V22.378H75.167v2.208a2.208,2.208,0,1,0,4.417,0V22.378h4.8L92.754,65.7a4.475,4.475,0,0,1,.08.845,4.422,4.422,0,0,1-4.417,4.417Z" transform="translate(0 0)" fill="#68c4c6"/>
    <path id="Path_142320" data-name="Path 142320" d="M303.208,241A2.208,2.208,0,0,0,301,243.208v4.417a2.208,2.208,0,0,0,4.417,0v-4.417A2.208,2.208,0,0,0,303.208,241Z" transform="translate(-230.25 -205.519)" fill="#68c4c6"/>
    <path id="Path_142321" data-name="Path 142321" d="M183.208,249.833a2.208,2.208,0,0,0,2.208-2.208v-4.417a2.208,2.208,0,1,0-4.417,0v4.417A2.208,2.208,0,0,0,183.208,249.833Z" transform="translate(-127.916 -205.519)" fill="#68c4c6"/>
    <path id="Path_142322" data-name="Path 142322" d="M200.875,344.25a2.208,2.208,0,0,1-2.208-2.208,6.625,6.625,0,0,0-13.25,0,2.208,2.208,0,0,1-4.417,0,11.042,11.042,0,0,1,22.083,0A2.208,2.208,0,0,1,200.875,344.25Z" transform="translate(-127.917 -282.269)" fill="#68c4c6"/>
  </g>
</svg>
