<svg xmlns="http://www.w3.org/2000/svg" width="23.024" height="23" viewBox="0 0 23.024 23">
  <g id="Layer_2" data-name="Layer 2" transform="translate(-1.33 -1.35)">
    <path id="Path_142280" data-name="Path 142280" d="M9.736,23.85a2.169,2.169,0,0,1-1.555-.637l-5.7-5.7a2.177,2.177,0,0,1,0-3.11L14.4,2.487a2.161,2.161,0,0,1,1.555-.637h5.722a2.177,2.177,0,0,1,2.177,2.177V9.74a2.161,2.161,0,0,1-.637,1.555L11.291,23.212a2.169,2.169,0,0,1-1.555.637ZM9.3,22.116a.622.622,0,0,0,.878,0L22.112,10.183a.614.614,0,0,0,.179-.435V4.027a.622.622,0,0,0-.622-.622H15.955a.614.614,0,0,0-.435.179L3.579,15.516a.622.622,0,0,0,0,.878Z" fill="#fff" stroke="#fff" stroke-width="1"/>
    <circle id="Ellipse_6" data-name="Ellipse 6" cx="0.777" cy="0.777" r="0.777" transform="translate(18.823 5.255)" fill="#fff" stroke="#f0f0f0" stroke-width="1"/>
  </g>
</svg>
