<svg xmlns="http://www.w3.org/2000/svg" width="14.329" height="18.58" viewBox="0 0 14.329 18.58">
  <g id="share" transform="translate(-8.226 -3.545)">
    <path id="Path_142362" data-name="Path 142362" d="M20.511,9.129H18.651a.681.681,0,0,0,0,1.363h1.86a.682.682,0,0,1,.681.681v8.909a.682.682,0,0,1-.681.681H10.27a.682.682,0,0,1-.681-.681V11.172a.682.682,0,0,1,.681-.681h1.86a.681.681,0,0,0,0-1.363H10.27a2.046,2.046,0,0,0-2.044,2.044v8.909a2.046,2.046,0,0,0,2.044,2.044H20.511a2.046,2.046,0,0,0,2.044-2.044V11.172a2.046,2.046,0,0,0-2.044-2.044ZM12.85,7.753l1.882-1.882v8.969a.681.681,0,1,0,1.363,0V5.872l1.882,1.882a.681.681,0,0,0,.964-.963L15.9,3.745a.681.681,0,0,0-.964,0L11.887,6.79a.681.681,0,0,0,.963.963Z" transform="translate(0 0)" fill="#68c4c6"/>
  </g>
</svg>
