<svg xmlns="http://www.w3.org/2000/svg" width="21.952" height="22" viewBox="0 0 21.952 22">
  <g id="sort_2_" data-name="sort (2)" transform="translate(-0.533 0)">
    <g id="Group_50456" data-name="Group 50456" transform="translate(0.533 0)">
      <path id="Path_142311" data-name="Path 142311" d="M12.255,59.835a.948.948,0,0,0-1.308.094l-3.461,3.9V48.237a.935.935,0,0,0-1.87,0V63.832l-3.461-3.9a.95.95,0,0,0-1.308-.094.95.95,0,0,0-.094,1.308l5.1,5.7a.867.867,0,0,0,1.358,0l5.143-5.7A.944.944,0,0,0,12.255,59.835Z" transform="translate(-0.533 -45.176)" fill="#68c4c6"/>
      <path id="Path_142312" data-name="Path 142312" d="M232.949,6.056,227.9.351a.876.876,0,0,0-1.4,0l-5.143,5.7a.948.948,0,0,0,.094,1.308.9.9,0,0,0,1.308-.094l3.461-3.9v15.55a.94.94,0,0,0,.935.935.9.9,0,0,0,.935-.89V3.372l3.461,3.9a.929.929,0,1,0,1.4-1.218Z" transform="translate(-211.216 0)" fill="#68c4c6"/>
    </g>
  </g>
</svg>
