<svg xmlns="http://www.w3.org/2000/svg" xmlns:xlink="http://www.w3.org/1999/xlink" width="429" height="926" viewBox="0 0 429 926">
  <defs>
    <clipPath id="clip-path">
      <rect id="Rectangle_1" data-name="Rectangle 1" width="195.535" height="72.159" fill="#fff"/>
    </clipPath>
  </defs>
  <g id="splash" transform="translate(0.5)">
    <rect id="Rectangle_15296" data-name="Rectangle 15296" width="428" height="926" fill="#68c4c6"/>
    <g id="Group_2" data-name="Group 2" transform="translate(123.465 427)">
      <g id="Group_1" data-name="Group 1" transform="translate(0 0)" clip-path="url(#clip-path)">
        <path id="Path_1" data-name="Path 1" d="M0,45.925V0H14.88q8.458,0,11.026.689a12.044,12.044,0,0,1,6.61,4.5,14.255,14.255,0,0,1,2.663,8.943,15,15,0,0,1-1.534,7.112,12.6,12.6,0,0,1-3.9,4.526,13.453,13.453,0,0,1-4.809,2.178,53.015,53.015,0,0,1-9.618.657H9.273V45.925ZM9.273,7.769V20.8h5.075q5.481,0,7.33-.721a6.089,6.089,0,0,0,2.9-2.256,6.169,6.169,0,0,0,1.05-3.571,5.933,5.933,0,0,0-1.473-4.135,6.414,6.414,0,0,0-3.728-2.036,44.623,44.623,0,0,0-6.673-.313Z" transform="translate(0 0)" fill="#fff"/>
        <path id="Path_2" data-name="Path 2" d="M55.916,0h8.8V8.144h-8.8Zm0,12.656h8.8V45.925h-8.8Z" transform="translate(-13.188 0)" fill="#fff"/>
        <path id="Path_3" data-name="Path 3" d="M79.242,0h8.8V8.144h-8.8Zm0,12.656h8.8V45.925h-8.8Z" transform="translate(-18.689 0)" fill="#fff"/>
        <path id="Path_4" data-name="Path 4" d="M102.568,0h8.8V8.144h-8.8Zm0,12.656h8.8V45.925h-8.8Z" transform="translate(-24.191 0)" fill="#fff"/>
        <path id="Path_5" data-name="Path 5" d="M154.3,26.167l-8.677,1.566a6.3,6.3,0,0,0-1.99-3.915,6.005,6.005,0,0,0-4.025-1.316,6.577,6.577,0,0,0-5.247,2.271q-1.959,2.272-1.958,7.6,0,5.92,1.988,8.364a6.531,6.531,0,0,0,5.341,2.444,5.933,5.933,0,0,0,4.1-1.426,8.565,8.565,0,0,0,2.254-4.9l8.647,1.472a15.35,15.35,0,0,1-5.169,8.992q-3.821,3.039-10.243,3.039-7.3,0-11.638-4.606T123.352,33q0-8.239,4.355-12.829t11.778-4.589q6.077,0,9.664,2.616a14.494,14.494,0,0,1,5.153,7.972" transform="translate(-29.093 -3.675)" fill="#fff"/>
        <path id="Path_6" data-name="Path 6" d="M172.178,45.924V0h8.8V24.372l10.307-11.716h10.839L190.754,24.81,202.94,45.924h-9.492l-8.364-14.943-4.1,4.291V45.924Z" transform="translate(-40.608 0)" fill="#fff"/>
        <path id="Path_7" data-name="Path 7" d="M215.221,40.107l8.834-1.346a6.471,6.471,0,0,0,2.288,3.9,7.723,7.723,0,0,0,4.823,1.331,8.711,8.711,0,0,0,5.137-1.253,2.8,2.8,0,0,0,1.159-2.35,2.315,2.315,0,0,0-.627-1.66,7.037,7.037,0,0,0-2.945-1.159q-10.651-2.349-13.5-4.291a8.569,8.569,0,0,1-3.948-7.486,9.225,9.225,0,0,1,3.416-7.268q3.413-2.945,10.587-2.944,6.829,0,10.15,2.224a11.366,11.366,0,0,1,4.573,6.579l-8.3,1.534a5.144,5.144,0,0,0-2.02-2.976,7.39,7.39,0,0,0-4.245-1.033,9.561,9.561,0,0,0-4.981.97,2.084,2.084,0,0,0-1,1.786,1.95,1.95,0,0,0,.877,1.6q1.19.877,8.223,2.474t9.822,3.915A8.141,8.141,0,0,1,246.3,39.2a10.05,10.05,0,0,1-3.821,7.863q-3.824,3.29-11.309,3.29-6.8,0-10.76-2.757a12.7,12.7,0,0,1-5.185-7.488" transform="translate(-50.76 -3.675)" fill="#fff"/>
        <path id="Path_8" data-name="Path 8" d="M78.72,90.694A41.015,41.015,0,0,1,59.81,86.26c-2.085-1.013-4.09-2.2-6.093-3.367a4.468,4.468,0,0,1-1.283-1.282,1.633,1.633,0,0,1,.089-2.033,1.926,1.926,0,0,1,2.066-.9,7.9,7.9,0,0,1,1.617.624c3.083,1.542,6.125,3.171,9.24,4.644A27.85,27.85,0,0,0,78.793,86.5,33.539,33.539,0,0,0,91.6,83.331c1.638-.764,3.168-1.758,4.75-2.64.856-.478,1.7-.976,2.582-1.4a1.939,1.939,0,0,1,2.623.829,1.731,1.731,0,0,1-.362,2.525,26.933,26.933,0,0,1-3.372,2.382,43.03,43.03,0,0,1-8.1,3.715A36.853,36.853,0,0,1,78.72,90.694" transform="translate(-12.292 -18.543)" fill="#fff"/>
      </g>
    </g>
    <path id="Intersection_1" data-name="Intersection 1" d="M1842.862,3620.373c-15.024-7.3-29.631-15.5-44.118-23.892V3547.9c2.923,1.117,5.786,2.419,8.562,3.807,30.416,15.212,60.415,31.282,91.146,45.807,41.578,19.666,85.727,27.279,131.661,25.236a330.848,330.848,0,0,0,126.37-31.259c16.153-7.537,31.251-17.337,46.855-26.043,7.772-4.337,15.459-8.846,23.406-12.816v50.055q-4.389,2.871-8.9,5.508c-25.395,14.79-51.935,27.378-79.892,36.649-35.231,11.691-71.344,18.618-108.558,19.273q-3.589.07-7.168.07C1959.01,3664.185,1899.528,3647.9,1842.862,3620.373Z" transform="translate(-1798.745 -2897)" fill="#fff" stroke="rgba(0,0,0,0)" stroke-width="1"/>
  </g>
</svg>
