<svg xmlns="http://www.w3.org/2000/svg" width="22.4" height="24" viewBox="0 0 22.4 24">
  <g id="Group_50600" data-name="Group 50600" transform="translate(-373 -170)">
    <path id="Path_142363" data-name="Path 142363" d="M2.8,6.6H4.4V22.984A2.824,2.824,0,0,0,7.216,25.8h12A2.824,2.824,0,0,0,22,22.984V6.6h1.6a.8.8,0,0,0,0-1.6H2.8a.8.8,0,1,0,0,1.6Zm17.6,0V22.984A1.216,1.216,0,0,1,19.184,24.2h-12A1.216,1.216,0,0,1,6,22.984V6.6Z" transform="translate(371 168.2)" fill="#1d1d1b"/>
    <path id="Path_142364" data-name="Path 142364" d="M11.8,2.6h6.4a.8.8,0,1,0,0-1.6H11.8a.8.8,0,1,0,0,1.6Z" transform="translate(369.2 169)" fill="#1d1d1b"/>
    <path id="Path_142365" data-name="Path 142365" d="M12.48,22.2a.8.8,0,0,0,.8-.8V11.8a.8.8,0,1,0-1.6,0v9.6A.8.8,0,0,0,12.48,22.2Z" transform="translate(369.064 167)" fill="#1d1d1b"/>
    <path id="Path_142366" data-name="Path 142366" d="M19.12,22.2a.8.8,0,0,0,.8-.8V11.8a.8.8,0,1,0-1.6,0v9.6A.8.8,0,0,0,19.12,22.2Z" transform="translate(367.736 167)" fill="#1d1d1b"/>
  </g>
</svg>
