<svg xmlns="http://www.w3.org/2000/svg" width="33" height="34" viewBox="0 0 33 34">
  <g id="Group_11341" data-name="Group 11341" transform="translate(-0.1 0.335)">
    <ellipse id="Ellipse_1" data-name="Ellipse 1" cx="16.5" cy="17" rx="16.5" ry="17" transform="translate(0.1 -0.335)" fill="#fafafa"/>
    <path id="whatsapp" d="M18.176,6.423a8.263,8.263,0,0,0-13,9.965L4,20.669l4.38-1.15a8.267,8.267,0,0,0,3.948,1.007h0a8.263,8.263,0,0,0,5.844-14.1ZM12.332,19.129h0a6.866,6.866,0,0,1-3.495-.956l-.251-.149-2.6.681.694-2.533-.162-.259a6.866,6.866,0,1,1,5.817,3.217ZM16.1,13.987c-.205-.1-1.221-.6-1.41-.67s-.327-.1-.465.1-.532.672-.654.81-.24.154-.446.051a5.587,5.587,0,0,1-1.661-1.026,6.179,6.179,0,0,1-1.148-1.429c-.122-.208-.014-.319.089-.421s.208-.24.311-.362a1.437,1.437,0,0,0,.208-.343.385.385,0,0,0-.019-.362c-.051-.1-.465-1.121-.637-1.534s-.338-.346-.465-.354-.257-.005-.394-.005a.755.755,0,0,0-.551.259,2.309,2.309,0,0,0-.721,1.72,4.027,4.027,0,0,0,.843,2.136A9.22,9.22,0,0,0,12.5,15.675a11.458,11.458,0,0,0,1.175.435,2.871,2.871,0,0,0,1.3.084,2.126,2.126,0,0,0,1.394-.983,1.735,1.735,0,0,0,.119-.98C16.442,14.144,16.3,14.092,16.1,13.987Z" transform="translate(4.116 4.369)" fill="#68c4c6" fill-rule="evenodd"/>
  </g>
</svg>
