<svg xmlns="http://www.w3.org/2000/svg" width="27.24" height="27.365" viewBox="0 0 27.24 27.365">
  <path id="whatsapp" d="M27.272,7.977A13.565,13.565,0,0,0,5.924,24.337L4,31.365l7.191-1.889a13.573,13.573,0,0,0,6.482,1.654h0A13.565,13.565,0,0,0,27.272,7.977Zm-9.594,20.86h0a11.272,11.272,0,0,1-5.737-1.57l-.412-.244-4.27,1.117,1.139-4.159-.266-.426a11.272,11.272,0,1,1,9.55,5.281ZM23.858,20.4c-.337-.168-2-.989-2.314-1.1s-.536-.168-.763.168-.873,1.1-1.073,1.33-.395.253-.732.084a9.172,9.172,0,0,1-2.727-1.685,10.144,10.144,0,0,1-1.884-2.345c-.2-.341-.022-.523.146-.692.155-.151.341-.395.51-.594A2.359,2.359,0,0,0,15.364,15a.632.632,0,0,0-.031-.594c-.084-.168-.763-1.84-1.046-2.518-.275-.661-.554-.568-.763-.581s-.421-.009-.647-.009a1.24,1.24,0,0,0-.9.426,3.791,3.791,0,0,0-1.184,2.824,6.61,6.61,0,0,0,1.383,3.507,15.136,15.136,0,0,0,5.79,5.112,18.809,18.809,0,0,0,1.929.714,4.713,4.713,0,0,0,2.137.137A3.49,3.49,0,0,0,24.315,22.4a2.848,2.848,0,0,0,.2-1.609C24.426,20.653,24.2,20.569,23.858,20.4Z" transform="translate(-4 -4)" fill="#68c4c6" fill-rule="evenodd"/>
</svg>
